# xmcd CD database file
# Copyright (C) 1993-1998 Ti Kan
#
# Track frame offsets:
#	183
#	32095
#	56200
#	66170
#	75598
#	88178
#	100865
#	110305
#	122123
#	134003
#	152073
#	166120
#	180088
#	193648
#	206055
#	224135
#	237475
#	249110
#	263348
#
# Disc length: 3654 seconds
#
# Revision: 1
# Processed by: cddbd v1.4b41PL1 Copyright (c) Steve Scherf et al.
# Submitted via: CDValet v3.31 - Copyright (c) 1997 Greg Leichner
#
DISCID=080e4413
DTITLE=Welsh Male Voice Choirs - Land of Song
DYEAR=1900
DGENRE=
TTITLE0=A Garland of welsh Folk songs
TTITLE1=Entrance and March of the Peers
TTITLE2=Calm is the Sea
TTITLE3=Little Innocent Lamb
TTITLE4=Dies Irae
TTITLE5=Rise up Shepherd and Foller
TTITLE6=L'll Lizza Jane
TTITLE7=An Evenings Pastorale
TTITLE8=My Lord What a Morning
TTITLE9=Memry
TTITLE10=Christus redeemer
TTITLE11=The Lord's Prayer
TTITLE12=All Through the night
TTITLE13=My Old Kentucky Home
TTITLE14=Pilgrims Chorus from Tannhauser
TTITLE15=Rose of Tralee
TTITLE16=The Ericksay love Lilt
TTITLE17=The Long Day Closes
TTITLE18=Nant Y Mynydd
EXTD=
EXTT0=
EXTT1=
EXTT2=
EXTT3=
EXTT4=
EXTT5=
EXTT6=
EXTT7=
EXTT8=
EXTT9=
EXTT10=
EXTT11=
EXTT12=
EXTT13=
EXTT14=
EXTT15=
EXTT16=
EXTT17=
EXTT18=
PLAYORDER=
